Coordinates
version=1
nRows=24
nColumns=22
inDegrees=yes

Units are S.I. units (second, meters, Newtons, ...)
If the header above contains a line with 'inDegrees', this indicates whether rotational values are in degrees (yes) or radians (no).

endheader
time	pelvis_tilt	pelvis_list	pelvis_rotation	pelvis_tx	pelvis_ty	pelvis_tz	hip_flexion_r	hip_adduction_r	hip_rotation_r	knee_angle_r	ankle_angle_r	subtalar_angle_r	hip_flexion_l	hip_adduction_l	hip_rotation_l	knee_angle_l	ankle_angle_l	subtalar_angle_l	lumbar_extension	lumbar_bending	lumbar_rotation
      1.36000000	     -2.02754178	     -3.84490355	      1.18984714	     -0.97470307	      0.93934607	     -0.70602420	      1.76196508	      2.46697311	    -12.53639004	    -10.60767273	     11.41500950	      0.60202286	      8.06107226	     -4.36761072	     -7.60811529	    -23.08967408	     15.10156129	     -2.52695290	     -7.09328753	     -0.22932516	     -4.06634234
      1.37000000	     -2.01947626	     -3.83600226	      1.28500712	     -0.97330246	      0.93913379	     -0.70692410	      1.71157782	      2.39835931	    -12.60389683	    -10.72939049	     11.55193988	      0.59673178	      7.98973854	     -4.29650867	     -7.52881138	    -23.12715523	     15.21252665	     -2.56561510	     -7.08700977	     -0.22870108	     -4.06938438
      1.38000000	     -2.00705204	     -3.81696043	      1.39086997	     -0.97185582	      0.93891468	     -0.70788487	      1.67409816	      2.31279263	    -12.67816393	    -10.89149262	     11.70647578	      0.58357376	      7.90667599	     -4.20890867	     -7.43932552	    -23.15571844	     15.31972975	     -2.61546486	     -7.08567200	     -0.24172115	     -4.07597641
      1.39000000	     -1.98974896	     -3.78699566	      1.50200813	     -0.97036837	      0.93868953	     -0.70891651	      1.65488197	      2.20632231	    -12.75250039	    -11.10401451	     11.87904082	      0.56616998	      7.81024667	     -4.10326341	     -7.34243322	    -23.17490281	     15.42760554	     -2.67108322	     -7.09159425	     -0.26327041	     -4.08272881
      1.40000000	     -1.96839517	     -3.74483842	      1.61097849	     -0.96884629	      0.93845412	     -0.71001152	      1.65992156	      2.07736805	    -12.82317137	    -11.37583632	     12.06955034	      0.54816200	      7.70100608	     -3.97780965	     -7.24188437	    -23.18568282	     15.53734196	     -2.72684282	     -7.10503011	     -0.29321695	     -4.08623821
      1.41000000	     -1.94461363	     -3.68591770	      1.72348714	     -0.96729703	      0.93819989	     -0.71115114	      1.69631825	      1.92159096	    -12.88861000	    -11.71640869	     12.28543045	      0.53049658	      7.58174332	     -3.83165655	     -7.14026883	    -23.18859552	     15.64405692	     -2.78661402	     -7.12429560	     -0.34566733	     -4.08745909
      1.42000000	     -1.92740623	     -3.59430242	      1.83839592	     -0.96574126	      0.93791126	     -0.71237713	      1.77870753	      1.71683973	    -12.94395110	    -12.13538612	     12.55910064	      0.50536235	      7.46554677	     -3.64106641	     -7.03319514	    -23.18693074	     15.71048404	     -2.89435592	     -7.14210764	     -0.42769641	     -4.11439357
      1.43000000	     -1.91109410	     -3.49305389	      1.94309858	     -0.96417023	      0.93758530	     -0.71363049	      1.91025522	      1.49010329	    -12.99060252	    -12.64674002	     12.84098846	      0.49285487	      7.33994155	     -3.43854324	     -6.93498614	    -23.17471316	     15.82062691	     -2.97481636	     -7.16393901	     -0.52238380	     -4.10508168
      1.44000000	     -1.89810277	     -3.36482806	      2.04347518	     -0.96259250	      0.93721318	     -0.71494570	      2.09459183	      1.21954534	    -13.02814265	    -13.25349525	     13.16131508	      0.49112301	      7.20978389	     -3.20097690	     -6.84016147	    -23.15364665	     15.92954390	     -3.04963264	     -7.18836598	     -0.64287372	     -4.09322068
      1.45000000	     -1.88694365	     -3.20951251	      2.14214816	     -0.96101019	      0.93679284	     -0.71630116	      2.33518418	      0.90541257	    -13.05001093	    -13.96661692	     13.51806233	      0.49955888	      7.07504286	     -2.93096327	     -6.74746433	    -23.12509371	     16.04016241	     -3.12651363	     -7.21855931	     -0.79554953	     -4.07739858
      1.46000000	     -1.87773549	     -3.02446012	      2.23806981	     -0.95943809	      0.93631666	     -0.71770237	      2.63586527	      0.54371744	    -13.05176374	    -14.79031127	     13.90770102	      0.51890996	      6.93825055	     -2.62434051	     -6.65465586	    -23.09276960	     16.14912682	     -3.21251436	     -7.25734327	     -0.98110401	     -4.05407815
      1.47000000	     -1.87232980	     -2.80630116	      2.33254627	     -0.95789511	      0.93577606	     -0.71913866	      3.00242012	      0.13109212	    -13.02592702	    -15.73065354	     14.32283751	      0.55184147	      6.80992873	     -2.27818022	     -6.55581867	    -23.07115497	     16.24567907	     -3.32252681	     -7.30700668	     -1.20651687	     -4.01296714
      1.48000000	     -1.85199570	     -2.55999078	      2.41787488	     -0.95631167	      0.93520002	     -0.72059824	      3.40636954	     -0.32594129	    -12.97750648	    -16.77924996	     14.75059783	      0.59764315	      6.63622081	     -1.90222894	     -6.48680671	    -23.00675377	     16.38765902	     -3.40009235	     -7.38017472	     -1.45906843	     -3.99887744
      1.49000000	     -1.84111048	     -2.27304176	      2.50340327	     -0.95480365	      0.93454965	     -0.72206581	      3.88462249	     -0.83921445	    -12.87935146	    -17.94543837	     15.19168756	      0.66630808	      6.49527700	     -1.48041589	     -6.39927151	    -22.98207041	     16.47317384	     -3.52149130	     -7.46907973	     -1.76750507	     -3.96462538
      1.50000000	     -1.81668277	     -1.96138550	      2.58059748	     -0.95328357	      0.93386330	     -0.72353584	      4.40007884	     -1.39034783	    -12.75057991	    -19.21382881	     15.61798236	      0.74605928	      6.32037660	     -1.03447581	     -6.33221159	    -22.92987607	     16.59069044	     -3.62256303	     -7.58890194	     -2.10060840	     -3.95456395
      1.51000000	     -1.79038646	     -1.62854285	      2.65301645	     -0.95178224	      0.93313641	     -0.72497497	      4.96778051	     -1.97152804	    -12.57854556	    -20.58565005	     16.00895994	      0.84089075	      6.14293011	     -0.57013979	     -6.27392446	    -22.88037329	     16.69799622	     -3.72785393	     -7.72992993	     -2.46474055	     -3.96004233
      1.52000000	     -1.75501010	     -1.28322510	      2.71900957	     -0.95031488	      0.93239259	     -0.72639219	      5.57719069	     -2.57285582	    -12.36166887	    -22.05133176	     16.34282903	      0.94383262	      5.95591576	     -0.09730733	     -6.22403310	    -22.83196007	     16.80683299	     -3.82198047	     -7.90508900	     -2.84304322	     -3.98485133
      1.53000000	     -1.71198949	     -0.93767365	      2.78018281	     -0.94889106	      0.93165277	     -0.72777608	      6.23320632	     -3.17687858	    -12.09299358	    -23.61220325	     16.59705577	      1.05210025	      5.76236453	      0.37028598	     -6.18450262	    -22.78354746	     16.91092231	     -3.90383097	     -8.11426413	     -3.22197477	     -4.03159528
      1.54000000	     -1.66377758	     -0.60246123	      2.83436093	     -0.94751085	      0.93093185	     -0.72912712	      6.94281280	     -3.77125750	    -11.76632419	    -25.27042393	     16.74887137	      1.16724081	      5.56993060	      0.82063468	     -6.15703662	    -22.74315752	     17.00924452	     -3.97747797	     -8.35157480	     -3.58879872	     -4.09803836
      1.55000000	     -1.63259110	     -0.29520923	      2.88220159	     -0.94618419	      0.93020715	     -0.73043953	      7.74190532	     -4.33433221	    -11.37623514	    -27.03972282	     16.76268717	      1.31766356	      5.41782649	      1.23091835	     -6.16808196	    -22.73537465	     17.11614719	     -4.07122385	     -8.58940310	     -3.92237635	     -4.20221093
      1.56000000	     -1.55066960	     -0.01041305	      2.91243248	     -0.94483524	      0.92961843	     -0.73170351	      8.54496769	     -4.86187599	    -10.91962247	    -28.89698299	     16.66465957	      1.40650088	      5.18724112	      1.62042992	     -6.13848144	    -22.68492927	     17.20713634	     -4.10097397	     -8.90029231	     -4.22818075	     -4.27595749
      1.57000000	     -1.49691539	      0.23784430	      2.92615864	     -0.94350544	      0.92902787	     -0.73290447	      9.46107586	     -5.33828983	    -10.38327978	    -30.87186159	     16.41067417	      1.51240666	      5.01228316	      1.96081967	     -6.15390208	    -22.67680789	     17.29800205	     -4.14619549	     -9.18896456	     -4.49248674	     -4.37249121
      1.58000000	     -1.44281307	      0.44336946	      2.92229224	     -0.94215075	      0.92849179	     -0.73403940	     10.45121828	     -5.75014504	     -9.78575510	    -32.94723611	     15.99417826	      1.59082482	      4.84359756	      2.25115680	     -6.17985125	    -22.68041637	     17.40064631	     -4.18837206	     -9.48484555	     -4.70712805	     -4.46730564
      1.59000000	     -1.40331576	      0.61297776	      2.90072509	     -0.94075898	      0.92797438	     -0.73510589	     11.52821623	     -6.09960950	     -9.12519237	    -35.11072920	     15.43799494	      1.63169319	      4.70418772	      2.49772857	     -6.22552024	    -22.71152136	     17.50765618	     -4.23482270	     -9.76526992	     -4.87868864	     -4.56925682
